# xmcd
#
# Track frame offsets:
#	150
#	16601
#	43298
#	61070
#	78804
#	98032
#	126114
#	142183
#	159512
#	177967
#	197456
#	215558
#	235304
#	254086
#	271289
#
# Disc length: 3875 seconds
#
# Revision: 0
# Processed by: cddbd v1.5.1PL0 Copyright (c) Steve Scherf et al.
# Submitted via: dBpowerAMP V4.0
#
DISCID=ce0f210f
DTITLE=Sade - Life Promise Pride Love
DYEAR=1900
DGENRE=Pop
TTITLE0=Your love is king
TTITLE1=Smooth Operator
TTITLE2=Hang on to your love
TTITLE3=Never as good as the first time
TTITLE4=The sweetest taboo
TTITLE5=Is it a crime?
TTITLE6=Paradise
TTITLE7=Nothing can come between us
TTITLE8=Turn my back on you
TTITLE9=Love is stronger than pride
TTITLE10=No ordinary love
TTITLE11=Cherish the day
TTITLE12=Kiss of life
TTITLE13=Feel no pain
TTITLE14=By your side
EXTD=
EXTT0=
EXTT1=
EXTT2=
EXTT3=
EXTT4=
EXTT5=
EXTT6=
EXTT7=
EXTT8=
EXTT9=
EXTT10=
EXTT11=
EXTT12=
EXTT13=
EXTT14=
PLAYORDER=
